<svg width="335" height="335" viewBox="0 0 335 335" fill="none" xmlns="http://www.w3.org/2000/svg">
<mask id="path-1-inside-1_455_6" fill="white">
<path fill-rule="evenodd" clip-rule="evenodd" d="M5.41854 180.147C-1.80616 172.922 -1.80616 161.209 5.41854 153.984L153.984 5.41859C160.631 -1.22811 171.077 -1.75987 178.331 3.82332C180.024 4.68413 181.612 5.82223 183.027 7.23762L329.282 153.493C336.507 160.718 336.507 172.431 329.282 179.656C322.058 186.881 310.344 186.881 303.119 179.656L186.337 62.8736L186.337 316.22C186.337 326.437 178.054 334.72 167.837 334.72C157.62 334.72 149.337 326.437 149.337 316.22L149.337 62.3915L31.5815 180.147C24.3568 187.372 12.6432 187.372 5.41854 180.147Z"/>
</mask>
<path fill-rule="evenodd" clip-rule="evenodd" d="M5.41854 180.147C-1.80616 172.922 -1.80616 161.209 5.41854 153.984L153.984 5.41859C160.631 -1.22811 171.077 -1.75987 178.331 3.82332C180.024 4.68413 181.612 5.82223 183.027 7.23762L329.282 153.493C336.507 160.718 336.507 172.431 329.282 179.656C322.058 186.881 310.344 186.881 303.119 179.656L186.337 62.8736L186.337 316.22C186.337 326.437 178.054 334.72 167.837 334.72C157.62 334.72 149.337 326.437 149.337 316.22L149.337 62.3915L31.5815 180.147C24.3568 187.372 12.6432 187.372 5.41854 180.147Z" fill="white"/>
<path d="M5.41852 153.984L4.71142 153.277L4.71142 153.277L5.41852 153.984ZM5.41852 180.147L4.71142 180.854L4.71142 180.854L5.41852 180.147ZM153.984 5.41852L154.691 6.12563L154.691 6.12563L153.984 5.41852ZM178.331 3.82325L177.721 4.61574L177.795 4.67244L177.878 4.71459L178.331 3.82325ZM183.027 7.23756L182.32 7.94466L182.32 7.94466L183.027 7.23756ZM329.282 153.493L328.575 154.2L328.575 154.2L329.282 153.493ZM303.119 179.656L303.827 178.949L303.827 178.949L303.119 179.656ZM186.337 62.8736L187.044 62.1665L185.337 60.4594L185.337 62.8736L186.337 62.8736ZM186.337 316.22L187.337 316.22V316.22L186.337 316.22ZM149.337 316.22L150.337 316.22V316.22L149.337 316.22ZM149.337 62.3914L150.337 62.3914L150.337 59.9772L148.63 61.6843L149.337 62.3914ZM31.5815 180.147L30.8744 179.44L30.8744 179.44L31.5815 180.147ZM4.71142 153.277C-2.90381 160.892 -2.90381 173.239 4.71142 180.854L6.12563 179.44C-0.708544 172.606 -0.708544 161.525 6.12563 154.691L4.71142 153.277ZM153.277 4.71141L4.71142 153.277L6.12563 154.691L154.691 6.12563L153.277 4.71141ZM178.941 3.03077C171.294 -2.85482 160.283 -2.29512 153.277 4.71142L154.691 6.12563C160.978 -0.161233 170.86 -0.665041 177.721 4.61574L178.941 3.03077ZM177.878 4.71459C179.478 5.5283 180.98 6.60455 182.32 7.94466L183.734 6.53045C182.243 5.03978 180.57 3.83983 178.785 2.93192L177.878 4.71459ZM182.32 7.94466L328.575 154.2L329.989 152.786L183.734 6.53045L182.32 7.94466ZM328.575 154.2C335.409 161.034 335.409 172.115 328.575 178.949L329.989 180.363C337.605 172.748 337.605 160.401 329.989 152.786L328.575 154.2ZM328.575 178.949C321.741 185.783 310.661 185.783 303.827 178.949L302.412 180.363C310.028 187.978 322.374 187.978 329.989 180.363L328.575 178.949ZM303.827 178.949L187.044 62.1665L185.63 63.5807L302.412 180.363L303.827 178.949ZM187.337 316.22L187.337 62.8736L185.337 62.8736L185.337 316.22L187.337 316.22ZM167.837 335.72C178.607 335.72 187.337 326.989 187.337 316.22H185.337C185.337 325.885 177.502 333.72 167.837 333.72V335.72ZM148.337 316.22C148.337 326.989 157.067 335.72 167.837 335.72V333.72C158.172 333.72 150.337 325.885 150.337 316.22H148.337ZM148.337 62.3914L148.337 316.22L150.337 316.22L150.337 62.3914L148.337 62.3914ZM32.2886 180.854L150.044 63.0986L148.63 61.6843L30.8744 179.44L32.2886 180.854ZM4.71142 180.854C12.3266 188.469 24.6734 188.469 32.2886 180.854L30.8744 179.44C24.0402 186.274 12.9598 186.274 6.12563 179.44L4.71142 180.854Z" fill="white" mask="url(#path-1-inside-1_455_6)"/>
</svg>
