<svg width="528" height="528" viewBox="0 0 528 528" fill="none" xmlns="http://www.w3.org/2000/svg">
<mask id="path-1-inside-1_337_19" fill="white">
<path fill-rule="evenodd" clip-rule="evenodd" d="M264 528C409.803 528 528 409.803 528 264C528 118.197 409.803 0 264 0C118.197 0 0 118.197 0 264C0 409.803 118.197 528 264 528ZM263.5 505C396.324 505 504 397.324 504 264.5C504 131.676 396.324 24 263.5 24C130.676 24 23 131.676 23 264.5C23 397.324 130.676 505 263.5 505ZM102.073 425.427C94.8479 418.203 94.8479 406.489 102.073 399.264L238.087 263.25L102.081 127.244C94.8568 120.02 94.8568 108.306 102.081 101.081C109.306 93.8568 121.02 93.8568 128.244 101.081L264.25 237.087L399.765 101.573C406.989 94.3478 418.703 94.3478 425.927 101.573C433.152 108.797 433.152 120.511 425.927 127.735L290.413 263.25L425.936 398.773C433.161 405.998 433.161 417.712 425.936 424.936C418.712 432.161 406.998 432.161 399.773 424.936L264.25 289.413L128.236 425.427C121.011 432.652 109.297 432.652 102.073 425.427Z"/>
</mask>
<path fill-rule="evenodd" clip-rule="evenodd" d="M264 528C409.803 528 528 409.803 528 264C528 118.197 409.803 0 264 0C118.197 0 0 118.197 0 264C0 409.803 118.197 528 264 528ZM263.5 505C396.324 505 504 397.324 504 264.5C504 131.676 396.324 24 263.5 24C130.676 24 23 131.676 23 264.5C23 397.324 130.676 505 263.5 505ZM102.073 425.427C94.8479 418.203 94.8479 406.489 102.073 399.264L238.087 263.25L102.081 127.244C94.8568 120.02 94.8568 108.306 102.081 101.081C109.306 93.8568 121.02 93.8568 128.244 101.081L264.25 237.087L399.765 101.573C406.989 94.3478 418.703 94.3478 425.927 101.573C433.152 108.797 433.152 120.511 425.927 127.735L290.413 263.25L425.936 398.773C433.161 405.998 433.161 417.712 425.936 424.936C418.712 432.161 406.998 432.161 399.773 424.936L264.25 289.413L128.236 425.427C121.011 432.652 109.297 432.652 102.073 425.427Z" fill="white"/>
<path d="M102.073 399.264L101.365 398.557L102.073 399.264ZM238.087 263.25L238.794 263.957L239.501 263.25L238.794 262.543L238.087 263.25ZM102.081 127.244L102.789 126.537L102.081 127.244ZM128.244 101.081L128.952 100.374L128.244 101.081ZM264.25 237.087L263.543 237.794L264.25 238.501L264.957 237.794L264.25 237.087ZM399.765 101.573L400.472 102.28L399.765 101.573ZM425.927 101.573L425.22 102.28L425.927 101.573ZM290.413 263.25L289.706 262.543L288.999 263.25L289.706 263.957L290.413 263.25ZM425.936 398.773L425.229 399.481L425.936 398.773ZM264.25 289.413L264.957 288.706L264.25 287.999L263.543 288.706L264.25 289.413ZM128.236 425.427L127.528 424.72L128.236 425.427ZM527 264C527 409.251 409.251 527 264 527V529C410.355 529 529 410.355 529 264H527ZM264 1C409.251 1 527 118.749 527 264H529C529 117.645 410.355 -1 264 -1V1ZM1 264C1 118.749 118.749 1 264 1V-1C117.645 -1 -1 117.645 -1 264H1ZM264 527C118.749 527 1 409.251 1 264H-1C-1 410.355 117.645 529 264 529V527ZM503 264.5C503 396.772 395.772 504 263.5 504V506C396.877 506 505 397.877 505 264.5H503ZM263.5 25C395.772 25 503 132.228 503 264.5H505C505 131.123 396.877 23 263.5 23V25ZM24 264.5C24 132.228 131.228 25 263.5 25V23C130.123 23 22 131.123 22 264.5H24ZM263.5 504C131.228 504 24 396.772 24 264.5H22C22 397.877 130.123 506 263.5 506V504ZM101.365 398.557C93.7502 406.173 93.7502 418.519 101.365 426.135L102.78 424.72C95.9455 417.886 95.9455 406.806 102.78 399.972L101.365 398.557ZM237.38 262.543L101.365 398.557L102.78 399.972L238.794 263.957L237.38 262.543ZM238.794 262.543L102.789 126.537L101.374 127.952L237.38 263.957L238.794 262.543ZM102.789 126.537C95.9544 119.703 95.9544 108.623 102.789 101.789L101.374 100.374C93.7592 107.99 93.7591 120.336 101.374 127.952L102.789 126.537ZM102.789 101.789C109.623 94.9544 120.703 94.9544 127.537 101.789L128.952 100.374C121.336 92.7591 108.99 92.7591 101.374 100.374L102.789 101.789ZM127.537 101.789L263.543 237.794L264.957 236.38L128.952 100.374L127.537 101.789ZM399.057 100.865L263.543 236.38L264.957 237.794L400.472 102.28L399.057 100.865ZM426.635 100.865C419.019 93.2502 406.673 93.2502 399.057 100.865L400.472 102.28C407.306 95.4454 418.386 95.4455 425.22 102.28L426.635 100.865ZM426.635 128.443C434.25 120.827 434.25 108.481 426.635 100.865L425.22 102.28C432.055 109.114 432.055 120.194 425.22 127.028L426.635 128.443ZM291.12 263.957L426.635 128.443L425.22 127.028L289.706 262.543L291.12 263.957ZM289.706 263.957L425.229 399.481L426.643 398.066L291.12 262.543L289.706 263.957ZM425.229 399.481C432.063 406.315 432.063 417.395 425.229 424.229L426.643 425.643C434.259 418.028 434.259 405.682 426.643 398.066L425.229 399.481ZM425.229 424.229C418.395 431.063 407.315 431.063 400.481 424.229L399.066 425.643C406.682 433.259 419.028 433.259 426.643 425.643L425.229 424.229ZM400.481 424.229L264.957 288.706L263.543 290.12L399.066 425.643L400.481 424.229ZM128.943 426.135L264.957 290.12L263.543 288.706L127.528 424.72L128.943 426.135ZM101.365 426.135C108.981 433.75 121.327 433.75 128.943 426.135L127.528 424.72C120.694 431.555 109.614 431.555 102.78 424.72L101.365 426.135Z" fill="white" mask="url(#path-1-inside-1_337_19)"/>
</svg>
