<svg width="25" height="25" viewBox="0 0 25 25" fill="none" xmlns="http://www.w3.org/2000/svg">
<g clip-path="url(#clip0_103_808)">
<path d="M12.4291 17.09C11.6265 17.09 10.824 16.8268 10.1394 16.2933L0 8.40909V19.4205C0 20.7071 1.04336 21.7509 2.33046 21.7509H22.5277C23.8148 21.7509 24.8582 20.7076 24.8582 19.4205V8.40909L14.7207 16.2987C14.0361 16.8279 13.2302 17.09 12.4291 17.09ZM0.790899 7.05451L11.0935 15.0703C11.8795 15.6821 12.9806 15.6821 13.7667 15.0703L24.0692 7.05451C24.5232 6.6661 24.8582 6.06892 24.8582 5.43776C24.8582 4.15066 23.8144 3.1073 22.5277 3.1073H2.33046C1.04336 3.1073 0 4.15066 0 5.43776C0 6.06892 0.291793 6.6661 0.790899 7.05451Z" fill="black"/>
</g>
<defs>
<clipPath id="clip0_103_808">
<rect width="24.8582" height="24.8582" fill="white"/>
</clipPath>
</defs>
</svg>
