<svg width="25" height="25" viewBox="0 0 25 25" fill="none" xmlns="http://www.w3.org/2000/svg">
<g clip-path="url(#clip0_103_804)">
<path d="M15.5364 3.10728H5.94753L4.66093 4.39437V7.76819H1.55365V3.75058C1.55365 3.33867 1.71751 2.94366 2.00882 2.65235L4.20576 0.45541C4.49585 0.16386 4.89397 0 5.3018 0H17.09C17.9494 0 18.6437 0.695738 18.6437 1.55364V7.76819H15.5364V3.10728ZM21.7509 6.21455H23.3046C24.16 6.21455 24.8582 6.91369 24.8582 7.76819V23.3046C24.8582 24.16 24.16 24.8582 23.3046 24.8582H21.7509C20.8955 24.8582 20.1973 24.16 20.1973 23.3046V7.76819C20.1973 6.91369 20.895 6.21455 21.7509 6.21455ZM1.55365 9.32183H18.6437V23.3046C18.6437 24.1591 17.9445 24.8582 17.09 24.8582H1.55365C0.699152 24.8582 1.52588e-05 24.1591 1.52588e-05 23.3046V10.8755C1.52588e-05 10.021 0.699152 9.32183 1.55365 9.32183ZM10.8755 20.9741C10.8755 21.405 11.2214 21.7509 11.6523 21.7509H13.2059C13.638 21.7509 13.9828 21.4062 13.9828 20.9741V19.4205C13.9828 18.9884 13.638 18.6437 13.2059 18.6437H11.6523C11.2214 18.6437 10.8755 18.9896 10.8755 19.4205V20.9741ZM10.8755 14.7596C10.8755 15.1904 11.2214 15.5364 11.6523 15.5364H13.2059C13.638 15.5364 13.9828 15.1917 13.9828 14.7596V13.2059C13.9828 12.7738 13.638 12.4291 13.2059 12.4291H11.6523C11.2202 12.4291 10.8755 12.7738 10.8755 13.2059V14.7596ZM4.66093 20.9741C4.66093 21.405 5.00686 21.7509 5.43775 21.7509H6.99138C7.42228 21.7509 7.7682 21.405 7.7682 20.9741V19.4205C7.7682 18.9896 7.42228 18.6437 6.99138 18.6437H5.43775C5.00686 18.6437 4.66093 18.9896 4.66093 19.4205V20.9741ZM4.66093 14.7596C4.66093 15.1904 5.00686 15.5364 5.43775 15.5364H6.99138C7.42349 15.5364 7.7682 15.1917 7.7682 14.7596V13.2059C7.7682 12.7738 7.42349 12.4291 6.99138 12.4291H5.43775C5.00564 12.4291 4.66093 12.7738 4.66093 13.2059V14.7596Z" fill="black"/>
</g>
<defs>
<clipPath id="clip0_103_804">
<rect width="24.8582" height="24.8582" fill="white" transform="matrix(-1 0 0 1 24.8582 0)"/>
</clipPath>
</defs>
</svg>
