<svg width="528" height="528" viewBox="0 0 528 528" fill="none" xmlns="http://www.w3.org/2000/svg">
<path d="M51.1042 216.887C48.4143 229.097 58.2283 240 70.7313 240H219C230.598 240 240 230.598 240 219V211H129V210.876H101.66C95.7062 210.876 91.0418 205.692 92.1689 199.846C102.746 144.982 145.981 101.746 200.846 91.1689C206.692 90.0418 211.876 94.7062 211.876 100.66V157H240V70.7313C240 58.2283 229.097 48.4143 216.887 51.1042C134.309 69.2962 69.2961 134.309 51.1042 216.887Z" fill="#1F1818"/>
<path d="M320 53.2598C317.062 52.481 314.099 51.762 311.113 51.1042C298.903 48.4143 288 58.2283 288 70.7313V219C288 230.598 297.402 240 309 240H457.269C469.772 240 479.586 229.097 476.896 216.887C476.461 214.915 476 212.952 475.512 211H330C324.477 211 320 206.523 320 201V53.2598Z" fill="#1F1818"/>
<path d="M70.7313 288C58.2283 288 48.4144 298.903 51.1042 311.113C69.2962 393.691 134.309 458.704 216.887 476.896C229.097 479.586 240 469.772 240 457.269V435H203V434.867C202.298 434.899 201.577 434.848 200.846 434.707C145.982 424.13 102.746 380.895 92.1689 326.03C91.0418 320.184 95.7062 315 101.66 315H201.876C202.256 315 202.631 315.021 203 315.062V315H240V309C240 297.402 230.598 288 219 288H70.7313Z" fill="#1F1818"/>
<path fill-rule="evenodd" clip-rule="evenodd" d="M309 288C297.402 288 288 297.402 288 309V457.269C288 469.772 298.903 479.586 311.113 476.896C393.691 458.704 458.704 393.691 476.896 311.113C479.586 298.903 469.772 288 457.269 288H309ZM331.03 434.707C325.184 435.835 320 431.17 320 425.216V325C320 319.477 324.477 315 330 315H430.216C436.17 315 440.834 320.184 439.707 326.03C429.13 380.895 385.895 424.13 331.03 434.707Z" fill="#1F1818"/>
<path d="M95 169V141H240V169H95Z" fill="#1F1818"/>
<path fill-rule="evenodd" clip-rule="evenodd" d="M264 528C409.803 528 528 409.803 528 264C528 118.197 409.803 0 264 0C118.197 0 0 118.197 0 264C0 409.803 118.197 528 264 528ZM263.5 505C396.324 505 504 397.324 504 264.5C504 131.676 396.324 24 263.5 24C130.676 24 23 131.676 23 264.5C23 397.324 130.676 505 263.5 505Z" fill="#1F1818"/>
</svg>
