<svg width="528" height="534" viewBox="0 0 528 534" fill="none" xmlns="http://www.w3.org/2000/svg">
<path fill-rule="evenodd" clip-rule="evenodd" d="M264 534C409.803 534 528 414.46 528 267C528 119.54 409.803 0 264 0C118.197 0 0 119.54 0 267C0 414.46 118.197 534 264 534ZM263.5 510.739C396.324 510.739 504 401.84 504 267.506C504 133.172 396.324 24.2727 263.5 24.2727C130.676 24.2727 23 133.172 23 267.506C23 401.84 130.676 510.739 263.5 510.739Z" fill="#1F1818"/>
<path d="M82 267.506C82 259.407 88.4919 252.841 96.5 252.841H264.5H432.5C440.508 252.841 447 259.407 447 267.506C447 275.605 440.508 282.17 432.5 282.17H96.5C88.4919 282.17 82 275.605 82 267.506Z" fill="#1F1818"/>
<path d="M82 166.369C82 158.27 88.4919 151.705 96.5 151.705H432.5C440.508 151.705 447 158.27 447 166.369C447 174.468 440.508 181.034 432.5 181.034H96.5C88.4919 181.034 82 174.468 82 166.369Z" fill="#1F1818"/>
<path d="M82 368.642C82 360.543 88.4919 353.977 96.5 353.977H432.5C440.508 353.977 447 360.543 447 368.642C447 376.741 440.508 383.307 432.5 383.307H96.5C88.4919 383.307 82 376.741 82 368.642Z" fill="#1F1818"/>
</svg>
