<svg width="528" height="528" viewBox="0 0 528 528" fill="none" xmlns="http://www.w3.org/2000/svg">
<path fill-rule="evenodd" clip-rule="evenodd" d="M264 528C409.803 528 528 409.803 528 264C528 118.197 409.803 0 264 0C118.197 0 0 118.197 0 264C0 409.803 118.197 528 264 528ZM263.5 505C396.324 505 504 397.324 504 264.5C504 131.676 396.324 24 263.5 24C130.676 24 23 131.676 23 264.5C23 397.324 130.676 505 263.5 505Z" fill="#1F1818"/>
<path d="M82 264.5C82 256.492 88.4919 250 96.5 250H264.5H432.5C440.508 250 447 256.492 447 264.5C447 272.508 440.508 279 432.5 279H96.5C88.4919 279 82 272.508 82 264.5Z" fill="#1F1818"/>
<path d="M82 164.5C82 156.492 88.4919 150 96.5 150H432.5C440.508 150 447 156.492 447 164.5C447 172.508 440.508 179 432.5 179H96.5C88.4919 179 82 172.508 82 164.5Z" fill="#1F1818"/>
<path d="M82 364.5C82 356.492 88.4919 350 96.5 350H432.5C440.508 350 447 356.492 447 364.5C447 372.508 440.508 379 432.5 379H96.5C88.4919 379 82 372.508 82 364.5Z" fill="#1F1818"/>
</svg>
