<svg width="25" height="25" viewBox="0 0 25 25" fill="none" xmlns="http://www.w3.org/2000/svg">
<g clip-path="url(#clip0_103_812)">
<path d="M24.8194 18.7892L23.6905 23.6832C23.532 24.375 22.9239 24.8591 22.2117 24.8591C9.9627 24.8581 0 14.8954 0 2.64596C0 1.9342 0.484007 1.32537 1.17591 1.16757L6.06987 0.0387605C6.7826 -0.12641 7.51087 0.243549 7.80703 0.918507L10.0656 6.18631C10.3296 6.80679 10.1516 7.52972 9.62964 7.956L7.01564 10.0549C8.66541 13.4156 11.3979 16.148 14.7596 17.7988L16.8997 15.1867C17.3215 14.6633 18.0499 14.4822 18.6704 14.751L23.9382 17.0091C24.5717 17.3424 24.9844 18.0804 24.8194 18.7892Z" fill="black"/>
</g>
<defs>
<clipPath id="clip0_103_812">
<rect width="24.8582" height="24.8582" fill="white"/>
</clipPath>
</defs>
</svg>
